<?xml version="1.0" encoding="UTF-8"?>
<svg width="122px" height="35px" viewBox="0 0 122 35" version="1.1" xmlns="http://www.w3.org/2000/svg" xmlns:xlink="http://www.w3.org/1999/xlink">
    <!-- Generator: Sketch 46.2 (44496) - http://www.bohemiancoding.com/sketch -->
    <title>Appstore</title>
    <desc>Created with Sketch.</desc>
    <defs>
        <rect id="path-1" x="0" y="0" width="121.251922" height="34.9456855" rx="2.42259608"></rect>
    </defs>
    <g id="Symbols" stroke="none" stroke-width="1" fill="none" fill-rule="evenodd">
        <g id="Footer" transform="translate(-210.000000, -90.000000)">
            <g id="Group" transform="translate(210.000000, 90.000000)">
                <g id="Appstore">
                    <g id="backfround-copy">
                        <use fill="#000000" fill-rule="evenodd" xlink:href="#path-1"></use>
                        <rect stroke="#9CA0A3" stroke-width="0.60564902" x="0.30282451" y="0.30282451" width="120.646272" height="34.3400365" rx="2.42259608"></rect>
                        <rect stroke="#8F8F8F" stroke-width="0.5" x="0.25" y="0.25" width="120.751922" height="34.4456855" rx="2.42259608"></rect>
                    </g>
                    <path d="M46.5409513,26.8376379 L48.5788768,26.8376379 L44.1177037,14.8406569 L42.05409,14.8406569 L37.5929169,26.8376379 L39.5623407,26.8376379 L40.7011815,23.653408 L45.4106733,23.653408 L46.5409513,26.8376379 Z M42.9874257,17.018903 L43.1329918,17.018903 L44.9225987,22.0903918 L41.1892561,22.0903918 L42.9874257,17.018903 Z M53.9824703,17.6341327 C52.7151889,17.6341327 51.6191617,18.2493625 51.0540227,19.2802881 L50.9170193,19.2802881 L50.9170193,17.7837832 L49.1445378,17.7837832 L49.1445378,29.7724502 L50.985521,29.7724502 L50.985521,25.4658417 L51.1310871,25.4658417 C51.6191617,26.421942 52.6723753,26.9872883 53.9995957,26.9872883 C56.3543416,26.9872883 57.8528163,25.1831686 57.8528163,22.3065536 C57.8528163,19.4299386 56.3543416,17.6341327 53.9824703,17.6341327 L53.9824703,17.6341327 Z M53.4601448,25.3827025 C51.9188566,25.3827025 50.9512701,24.2021265 50.9512701,22.3148675 C50.9512701,20.4192946 51.9188566,19.2387185 53.4687076,19.2387185 C55.0271212,19.2387185 55.9604569,20.3943529 55.9604569,22.3065536 C55.9604569,24.2270682 55.0271212,25.3827025 53.4601448,25.3827025 L53.4601448,25.3827025 Z M63.5304165,17.6341327 C62.2631351,17.6341327 61.1671079,18.2493625 60.6019689,19.2802881 L60.4649655,19.2802881 L60.4649655,17.7837832 L58.6924841,17.7837832 L58.6924841,29.7724502 L60.5334672,29.7724502 L60.5334672,25.4658417 L60.6790333,25.4658417 C61.1671079,26.421942 62.2203215,26.9872883 63.547542,26.9872883 C65.9022879,26.9872883 67.4007625,25.1831686 67.4007625,22.3065536 C67.4007625,19.4299386 65.9022879,17.6341327 63.5304165,17.6341327 L63.5304165,17.6341327 Z M63.0080911,25.3827025 C61.4668029,25.3827025 60.4992164,24.2021265 60.4992164,22.3148675 C60.4992164,20.4192946 61.4668029,19.2387185 63.0166538,19.2387185 C64.5750674,19.2387185 65.5084031,20.3943529 65.5084031,22.3065536 C65.5084031,24.2270682 64.5750674,25.3827025 63.0080911,25.3827025 L63.0080911,25.3827025 Z M71.2978406,23.6118384 C71.434844,25.7568288 73.2758271,27.1286249 76.0158951,27.1286249 C78.9443427,27.1286249 80.7767631,25.6903174 80.7767631,23.3956766 C80.7767631,21.5915568 79.7321122,20.5938869 77.1975494,20.0202267 L75.8360781,19.6959839 C74.2262882,19.3301716 73.575522,18.8396506 73.575522,17.9833172 C73.575522,16.9025081 74.5859221,16.1958253 76.1015222,16.1958253 C77.5400579,16.1958253 78.5333325,16.8858803 78.7131495,17.9916311 L80.5798208,17.9916311 C80.4685055,15.9713495 78.6360851,14.5496699 76.1272103,14.5496699 C73.4299559,14.5496699 71.6317863,15.9713495 71.6317863,18.108026 C71.6317863,19.8705762 72.6507491,20.9181296 74.885617,21.4252785 L76.4782815,21.7994047 C78.1137596,22.1735309 78.8330274,22.7222494 78.8330274,23.6367802 C78.8330274,24.7009614 77.7027494,25.4741556 76.1614612,25.4741556 C74.5088577,25.4741556 73.3614542,24.7508449 73.1987627,23.6118384 L71.2978406,23.6118384 Z M82.3613869,15.5889094 L82.3613869,17.8253528 L80.8286614,17.8253528 L80.8286614,19.3301716 L82.3613869,19.3301716 L82.3613869,24.44323 C82.3613869,26.1891524 83.1748446,26.8875214 85.2213328,26.8875214 C85.5809667,26.8875214 85.9149125,26.8459518 86.2060447,26.7960683 L86.2060447,25.3078773 C85.9491634,25.332819 85.8035973,25.3494469 85.5210277,25.3494469 C84.6048175,25.3494469 84.20237,24.9337511 84.20237,23.9859646 L84.20237,19.3301716 L86.2916719,19.3301716 L86.2916719,17.8253528 L84.20237,17.8253528 L84.20237,15.5889094 L82.3613869,15.5889094 Z M90.8561195,25.4242721 C89.2548923,25.4242721 88.3558075,24.2852656 88.3558075,22.3065536 C88.3558075,20.3444694 89.2548923,19.197149 90.8561195,19.197149 C92.448784,19.197149 93.3564315,20.3444694 93.3564315,22.3065536 C93.3564315,24.2769517 92.448784,25.4242721 90.8561195,25.4242721 L90.8561195,25.4242721 Z M90.8561195,27.0122301 C93.579062,27.0122301 95.2487909,25.241366 95.2487909,22.3065536 C95.2487909,19.388369 93.5704993,17.609191 90.8561195,17.609191 C88.133177,17.609191 86.4548853,19.388369 86.4548853,22.3065536 C86.4548853,25.241366 88.1246143,27.0122301 90.8561195,27.0122301 L90.8561195,27.0122301 Z M96.0884587,26.8376379 L97.9294419,26.8376379 L97.9294419,21.4917898 C97.9294419,20.2197606 98.9141538,19.3634273 100.301313,19.3634273 C100.609571,19.3634273 101.17471,19.4216247 101.320276,19.4715082 L101.320276,17.708958 C101.123334,17.6590745 100.772262,17.6341327 100.506818,17.6341327 C99.2909131,17.6341327 98.2633876,18.2826182 97.9979436,19.1722072 L97.8609402,19.1722072 L97.8609402,17.7837832 L96.0884587,17.7837832 L96.0884587,26.8376379 Z M105.465151,19.1306376 C106.826622,19.1306376 107.717144,20.0534823 107.759958,21.475162 L103.050466,21.475162 C103.153218,20.0617962 104.103679,19.1306376 105.465151,19.1306376 L105.465151,19.1306376 Z M107.751395,24.3933465 C107.408886,25.1000294 106.646805,25.4907834 105.533652,25.4907834 C104.060866,25.4907834 103.110405,24.4847996 103.050466,22.8968416 L103.050466,22.7970746 L109.635192,22.7970746 L109.635192,22.1735309 C109.635192,19.3301716 108.068215,17.609191 105.473713,17.609191 C102.844961,17.609191 101.175232,19.4465665 101.175232,22.3398093 C101.175232,25.233052 102.81071,27.0122301 105.482276,27.0122301 C107.614392,27.0122301 109.104303,26.0145602 109.523876,24.3933465 L107.751395,24.3933465 Z" id="App-Store" fill="#FFFFFF"></path>
                    <path d="M39.3181811,5.47625776 L39.3181811,11.1891058 L41.4425493,11.1891058 C43.1958666,11.1891058 44.2111596,10.1399688 44.2111596,8.31486625 C44.2111596,6.51747677 43.1877116,5.47625776 41.4425493,5.47625776 L39.3181811,5.47625776 Z M40.2315371,6.28389532 L41.3406122,6.28389532 C42.5597794,6.28389532 43.2814937,7.03610678 43.2814937,8.32674327 C43.2814937,9.63717481 42.5720118,10.3814682 41.3406122,10.3814682 L40.2315371,10.3814682 L40.2315371,6.28389532 Z M47.425031,10.5160745 C46.6625418,10.5160745 46.2344062,9.97369046 46.2344062,9.03144664 C46.2344062,8.09712083 46.6625418,7.55077777 47.425031,7.55077777 C48.1834426,7.55077777 48.6156557,8.09712083 48.6156557,9.03144664 C48.6156557,9.96973145 48.1834426,10.5160745 47.425031,10.5160745 L47.425031,10.5160745 Z M47.425031,11.272245 C48.7216703,11.272245 49.5167793,10.4289763 49.5167793,9.03144664 C49.5167793,7.64183495 48.7175928,6.79460731 47.425031,6.79460731 C46.1283917,6.79460731 45.3292052,7.64183495 45.3292052,9.03144664 C45.3292052,10.4289763 46.1243142,11.272245 47.425031,11.272245 L47.425031,11.272245 Z M56.3881521,6.87774647 L55.5114934,6.87774647 L54.7204619,10.1676818 L54.6511447,10.1676818 L53.7377887,6.87774647 L52.8978274,6.87774647 L51.9844714,10.1676818 L51.9192317,10.1676818 L51.1241227,6.87774647 L50.2352316,6.87774647 L51.4584762,11.1891058 L52.3595998,11.1891058 L53.2729558,8.01398167 L53.342273,8.01398167 L54.2597064,11.1891058 L55.1689849,11.1891058 L56.3881521,6.87774647 Z M57.5021202,11.1891058 L58.3787788,11.1891058 L58.3787788,8.66721793 C58.3787788,7.99418663 58.8109919,7.57453182 59.5163963,7.57453182 C60.1687935,7.57453182 60.4868371,7.91896548 60.4868371,8.61179182 L60.4868371,11.1891058 L61.3634957,11.1891058 L61.3634957,8.39800541 C61.3634957,7.37262243 60.8048807,6.79460731 59.8140525,6.79460731 C59.1453455,6.79460731 58.6275052,7.08361487 58.4113987,7.56265479 L58.346159,7.56265479 L58.346159,6.87774647 L57.5021202,6.87774647 L57.5021202,11.1891058 Z M62.8444372,11.1891058 L63.7210958,11.1891058 L63.7210958,5.19516821 L62.8444372,5.19516821 L62.8444372,11.1891058 Z M67.1184539,10.5160745 C66.3559648,10.5160745 65.9278291,9.97369046 65.9278291,9.03144664 C65.9278291,8.09712083 66.3559648,7.55077777 67.1184539,7.55077777 C67.8768656,7.55077777 68.3090787,8.09712083 68.3090787,9.03144664 C68.3090787,9.96973145 67.8768656,10.5160745 67.1184539,10.5160745 L67.1184539,10.5160745 Z M67.1184539,11.272245 C68.4150932,11.272245 69.2102022,10.4289763 69.2102022,9.03144664 C69.2102022,7.64183495 68.4110157,6.79460731 67.1184539,6.79460731 C65.8218146,6.79460731 65.0226281,7.64183495 65.0226281,9.03144664 C65.0226281,10.4289763 65.8177371,11.272245 67.1184539,11.272245 L67.1184539,11.272245 Z M71.9225433,10.5437876 C71.4454779,10.5437876 71.0988919,10.3181241 71.0988919,9.93014138 C71.0988919,9.55007664 71.3761607,9.34816725 71.987783,9.30857717 L73.0723932,9.24127404 L73.0723932,9.60154374 C73.0723932,10.1360098 72.5830954,10.5437876 71.9225433,10.5437876 L71.9225433,10.5437876 Z M71.6982818,11.260368 C72.2813617,11.260368 72.7665821,11.0149095 73.0316184,10.5833776 L73.1009356,10.5833776 L73.1009356,11.1891058 L73.9449744,11.1891058 L73.9449744,8.24360411 C73.9449744,7.33303235 73.3170422,6.79460731 72.2038896,6.79460731 C71.1967515,6.79460731 70.4791146,7.26968823 70.38941,8.01002266 L71.2375263,8.01002266 C71.3353859,7.70517907 71.6738169,7.53098273 72.1631147,7.53098273 C72.7625046,7.53098273 73.0723932,7.78831823 73.0723932,8.24360411 L73.0723932,8.61575083 L71.869536,8.68305396 C70.8134682,8.74639809 70.2181558,9.19376595 70.2181558,9.96973145 C70.2181558,10.757574 70.8420106,11.260368 71.6982818,11.260368 L71.6982818,11.260368 Z M77.0242889,11.260368 C77.6359112,11.260368 78.1537514,10.9792784 78.4187878,10.5081565 L78.4881049,10.5081565 L78.4881049,11.1891058 L79.3280663,11.1891058 L79.3280663,5.19516821 L78.4514076,5.19516821 L78.4514076,7.56265479 L78.3861679,7.56265479 C78.1455965,7.08757388 77.6318337,6.80648433 77.0242889,6.80648433 C75.9029813,6.80648433 75.181267,7.669548 75.181267,9.03144664 C75.181267,10.3973043 75.8948263,11.260368 77.0242889,11.260368 L77.0242889,11.260368 Z M77.2730153,7.57057281 C78.0069621,7.57057281 78.4677175,8.13671091 78.4677175,9.03540564 C78.4677175,9.93805939 78.0110395,10.4962795 77.2730153,10.4962795 C76.5309135,10.4962795 76.086468,9.94597741 76.086468,9.03144664 C76.086468,8.12483388 76.534991,7.57057281 77.2730153,7.57057281 L77.2730153,7.57057281 Z M85.2175814,10.5160745 C84.4550922,10.5160745 84.0269566,9.97369046 84.0269566,9.03144664 C84.0269566,8.09712083 84.4550922,7.55077777 85.2175814,7.55077777 C85.975993,7.55077777 86.4082061,8.09712083 86.4082061,9.03144664 C86.4082061,9.96973145 85.975993,10.5160745 85.2175814,10.5160745 L85.2175814,10.5160745 Z M85.2175814,11.272245 C86.5142207,11.272245 87.3093297,10.4289763 87.3093297,9.03144664 C87.3093297,7.64183495 86.5101432,6.79460731 85.2175814,6.79460731 C83.9209421,6.79460731 83.1217556,7.64183495 83.1217556,9.03144664 C83.1217556,10.4289763 83.9168646,11.272245 85.2175814,11.272245 L85.2175814,11.272245 Z M88.5700871,11.1891058 L89.4467458,11.1891058 L89.4467458,8.66721793 C89.4467458,7.99418663 89.8789589,7.57453182 90.5843633,7.57453182 C91.2367604,7.57453182 91.554804,7.91896548 91.554804,8.61179182 L91.554804,11.1891058 L92.4314627,11.1891058 L92.4314627,8.39800541 C92.4314627,7.37262243 91.8728476,6.79460731 90.8820195,6.79460731 C90.2133124,6.79460731 89.6954722,7.08361487 89.4793656,7.56265479 L89.4141259,7.56265479 L89.4141259,6.87774647 L88.5700871,6.87774647 L88.5700871,11.1891058 Z M96.673675,5.83256845 L96.673675,6.89754151 L95.9438057,6.89754151 L95.9438057,7.61412189 L96.673675,7.61412189 L96.673675,10.0489116 C96.673675,10.8803032 97.0610358,11.2128599 98.035554,11.2128599 C98.2068083,11.2128599 98.3658301,11.1930648 98.5044645,11.1693108 L98.5044645,10.4606484 C98.38214,10.4725254 98.3128228,10.4804434 98.1782659,10.4804434 C97.7419753,10.4804434 97.5503337,10.2824931 97.5503337,9.83116618 L97.5503337,7.61412189 L98.5452393,7.61412189 L98.5452393,6.89754151 L97.5503337,6.89754151 L97.5503337,5.83256845 L96.673675,5.83256845 Z M99.7937643,11.1891058 L100.670423,11.1891058 L100.670423,8.67117694 C100.670423,8.01794068 101.114869,7.57849083 101.832505,7.57849083 C102.493057,7.57849083 102.823333,7.9268835 102.823333,8.61575083 L102.823333,11.1891058 L103.699992,11.1891058 L103.699992,8.40592343 C103.699992,7.38054044 103.129145,6.79856632 102.130162,6.79856632 C101.461454,6.79856632 100.947692,7.08757388 100.731585,7.57057281 L100.662268,7.57057281 L100.662268,5.19516821 L99.7937643,5.19516821 L99.7937643,11.1891058 Z M106.966871,7.51910571 C107.61519,7.51910571 108.039249,7.95855556 108.059636,8.63554587 L105.817021,8.63554587 C105.865951,7.96251457 106.318551,7.51910571 106.966871,7.51910571 L106.966871,7.51910571 Z M108.055558,10.0251576 C107.892459,10.3616732 107.529563,10.5477466 106.999491,10.5477466 C106.298164,10.5477466 105.845563,10.0687066 105.817021,9.31253618 L105.817021,9.26502809 L108.952605,9.26502809 L108.952605,8.96810251 C108.952605,7.61412189 108.206425,6.79460731 106.970948,6.79460731 C105.719161,6.79460731 104.924052,7.669548 104.924052,9.04728267 C104.924052,10.4250173 105.702851,11.272245 106.975026,11.272245 C107.990319,11.272245 108.699801,10.7971641 108.899597,10.0251576 L108.055558,10.0251576 Z" id="Download-on-the" fill="#FFFFFF"></path>
                    <g id="logo_apple" transform="translate(10.855888, 5.432392)" fill="#FFFFFF">
                        <path d="M16.1452751,12.2070088 C16.1184017,9.30713535 18.5907536,7.89633749 18.7038071,7.83065621 C17.3036109,5.8485212 15.133353,5.5776984 14.3707047,5.55610456 C12.5479475,5.36985764 10.7798638,6.6151027 9.85134187,6.6151027 C8.90428655,6.6151027 7.47443688,5.57409943 5.93338698,5.60469071 C3.95031614,5.63438224 2.09512558,6.74916448 1.07764345,8.48027104 C-1.02218763,12.0099649 0.543882325,17.1969864 2.55567988,20.0500731 C3.562042,21.4482746 4.73798446,23.0075301 6.27718103,22.9526458 C7.78301753,22.8932627 8.34550537,22.0205115 10.1627025,22.0205115 C11.9632196,22.0205115 12.4914207,22.9526458 14.0611974,22.916656 C15.6773074,22.8932627 16.6947896,21.5139559 17.6659383,20.103158 C18.8289074,18.503414 19.2959484,16.9243641 19.3144817,16.8433872 C19.277415,16.8316905 16.1767818,15.682718 16.1452751,12.2070088" id="Fill-2"></path>
                        <path d="M13.1799355,3.67923954 C13.9898439,2.69581986 14.5439917,1.35790123 14.3901647,0.000188233414 C13.2179289,0.0505738713 11.7519392,0.787463826 10.9077441,1.74928966 C10.1608492,2.59684807 9.49364778,3.98605209 9.66600815,5.2924797 C10.9828042,5.38785252 12.3348138,4.64736359 13.1799355,3.67923954" id="Fill-3"></path>
                    </g>
                </g>
            </g>
        </g>
    </g>
</svg>