<?xml version="1.0" encoding="UTF-8"?>
<svg width="122px" height="36px" viewBox="0 0 122 36" version="1.1" xmlns="http://www.w3.org/2000/svg" xmlns:xlink="http://www.w3.org/1999/xlink">
    <!-- Generator: Sketch 46.2 (44496) - http://www.bohemiancoding.com/sketch -->
    <title>Playstore</title>
    <desc>Created with Sketch.</desc>
    <defs>
        <rect id="path-1" x="0" y="0" width="120.990695" height="35.9342246" rx="3.0282451"></rect>
        <linearGradient x1="50%" y1="0%" x2="50%" y2="38.9125982%" id="linearGradient-2">
            <stop stop-color="#FBDA09" offset="0%"></stop>
            <stop stop-color="#FFBC00" offset="100%"></stop>
        </linearGradient>
        <path d="M12.4426212,2.69006665 L21.6441794,18.9575807 L21.6441794,18.9575807 C22.1628754,19.8745877 21.8399805,21.0384549 20.9229734,21.5571509 C20.6364832,21.7192012 20.3129372,21.8043664 19.9837913,21.8043664 L1.58094202,21.8043664 L1.58094202,21.8043664 C0.527401622,21.8043664 -0.326661616,20.9503032 -0.326661616,19.8967628 C-0.326661616,19.567625 -0.241500608,19.2440866 -0.0794577653,18.9576013 L9.12183329,2.69008731 L9.12183329,2.69008731 C9.64051782,1.77307383 10.804381,1.45016442 11.7213945,1.96884895 C12.0228088,2.13933603 12.2721303,2.38865444 12.4426212,2.69006665 Z" id="path-3"></path>
        <linearGradient x1="0%" y1="58.4755255%" x2="69.3064856%" y2="39.0830098%" id="linearGradient-5">
            <stop stop-color="#01E2FF" offset="0%"></stop>
            <stop stop-color="#01C4FF" offset="100%"></stop>
        </linearGradient>
        <linearGradient x1="20.2810876%" y1="20.1019903%" x2="83.820166%" y2="83.6214476%" id="linearGradient-6">
            <stop stop-color="#28D781" offset="0%"></stop>
            <stop stop-color="#02F076" offset="100%"></stop>
        </linearGradient>
        <linearGradient x1="74.4881466%" y1="17.4301299%" x2="10.1079427%" y2="91.1838038%" id="linearGradient-7">
            <stop stop-color="#F2414E" offset="0%"></stop>
            <stop stop-color="#E02554" offset="100%"></stop>
        </linearGradient>
    </defs>
    <g id="Symbols" stroke="none" stroke-width="1" fill="none" fill-rule="evenodd">
        <g id="Footer" transform="translate(-344.000000, -90.000000)">
            <g id="Group" transform="translate(210.000000, 90.000000)">
                <g id="Playstore" transform="translate(134.309859, 0.000000)">
                    <g id="background">
                        <use fill="#000000" fill-rule="evenodd" xlink:href="#path-1"></use>
                        <rect stroke="#9CA0A3" stroke-width="0.60564902" x="0.30282451" y="0.30282451" width="120.385046" height="35.3285756" rx="3.0282451"></rect>
                        <rect stroke="#8F8F8F" stroke-width="0.5" x="0.25" y="0.25" width="120.490695" height="35.4342246" rx="3.0282451"></rect>
                    </g>
                    <g id="get-it-on" transform="translate(37.102728, 6.054545)" fill="#FFFFFF">
                        <path d="M27.0133899,5.89090909 C25.395658,5.89090909 24.0842271,4.57218417 24.0842271,2.94545455 C24.0842271,1.31872492 25.395658,0 27.0133899,0 C28.6311218,0 29.9425526,1.31872492 29.9425526,2.94545455 C29.9425526,4.57218417 28.6311218,5.89090909 27.0133899,5.89090909 Z M27.0133899,4.99090909 C28.1368148,4.99090909 29.0475307,4.0751279 29.0475307,2.94545455 C29.0475307,1.81578119 28.1368148,0.9 27.0133899,0.9 C25.8899649,0.9 24.9792491,1.81578119 24.9792491,2.94545455 C24.9792491,4.0751279 25.8899649,4.99090909 27.0133899,4.99090909 Z" id="o"></path>
                        <path d="M7.16017563,3.27272727 L7.16017563,5.07272727 L9.51977896,5.07272727 L9.51977896,5.72727273 L6.26515368,5.72727273 L6.26515368,5.4 L6.26515368,0.613636364 L6.26515368,0.245454545 L9.51977896,0.245454545 L9.51977896,0.9 L7.16017563,0.9 L7.16017563,2.61818182 L9.27568206,2.61818182 L9.27568206,3.27272727 L7.16017563,3.27272727 Z" id="e"></path>
                        <path d="M12.6930386,0.9 L12.6930386,5.72727273 L11.7980167,5.72727273 L11.7980167,0.9 L10.4148009,0.9 L10.4148009,0.245454545 L14.0762544,0.245454545 L14.0762544,0.9 L12.6930386,0.9 Z" id="t"></path>
                        <path d="M20.6668706,0.9 L20.6668706,5.72727273 L19.7718486,5.72727273 L19.7718486,0.9 L18.3886329,0.9 L18.3886329,0.245454545 L22.0500863,0.245454545 L22.0500863,0.9 L20.6668706,0.9 Z" id="t"></path>
                        <rect id="i" x="16.6799546" y="0.245454545" width="1" height="5.48181818"></rect>
                        <path d="M31.2037199,0.245454545 L30.6748433,0.245454545 L30.6748433,5.72727273 L31.5698653,5.72727273 L31.5698653,1.44878049 L34.1735655,5.72727273 L34.6210765,5.72727273 L35.0685875,5.72727273 L35.0685875,0.245454545 L34.1735655,0.245454545 L34.1735655,4.25654102 L31.7325965,0.245454545 L31.2037199,0.245454545 Z" id="n"></path>
                        <g id="g" transform="translate(0.000000, 0.081818)">
                            <polygon id="Rectangle-1" points="2.91152772 2.63210001 5.36206354 2.63210001 5.33780081 3.4119815 2.91152772 3.4119815"></polygon>
                            <path d="M4.87983732,0.797115986 C4.4028683,0.291277734 3.70513269,0 2.87513362,0 C1.28724117,0 0,1.29300103 0,2.88799863 C0,4.48299623 1.2872427,5.77371023 2.87513362,5.77599725 C4.48955299,5.79061051 5.83608717,4.64706359 5.56682773,2.66108853 C5.56682773,2.65140616 5.56678705,2.64174328 5.56670584,2.63210001 L4.85088855,2.63210001 C4.85671664,2.71501208 4.85874885,2.80034008 4.85681113,2.88799863 C4.8585171,4.30643664 4.04509091,4.97174447 2.89939635,4.97174447 C1.7537018,4.97174447 0.824932853,4.03881968 0.824932853,2.88799863 C0.824932853,1.73717757 1.7537018,0.804252782 2.89939635,0.804252782 C3.47256896,0.804252782 3.96932873,1.00117214 4.3190861,1.36037633 L4.87983732,0.797115986 Z" id="Oval-1"></path>
                        </g>
                    </g>
                    <g id="googleplay" transform="translate(36.695900, 15.709091)" fill="#FFFFFF">
                        <g id="big-P" transform="translate(50.772154, 0.409091)">
                            <path d="M0.406828161,2.875616e-07 L5.01968129,0 C5.01968129,0 7.67517367,0.454314631 7.67517346,3.52061989 C7.67517326,6.58692515 5.01968129,7.04123978 5.01968129,7.04123978 L0.406828161,7.04124007 L0.406828161,2.875616e-07 Z M1.30185011,1.70320195 L1.30185011,5.48181818 L4.43328019,5.48181818 C4.43328019,5.48181818 5.85832551,5.48181818 5.85832551,3.59251007 C5.85832551,1.70320195 4.43328019,1.70320195 4.43328019,1.70320195 L1.30185011,1.70320195 Z" id="Combined-Shape"></path>
                            <rect id="Rectangle-6" x="0" y="0" width="1.62731264" height="11.4545455"></rect>
                        </g>
                        <rect id="y" x="59.3969115" y="0.409090909" width="1.62731264" height="11.4545455"></rect>
                        <path d="M67.0556972,11.0446473 C66.6074779,11.416518 65.8908878,11.7665101 64.7591046,11.8375888 C62.1662506,12.0004263 62.1648997,9.62122676 62.1648997,9.46078658 C62.1648997,9.30034639 62.037011,7.36008079 64.0995583,7.0516646 C65.5600447,6.83327558 66.5829594,7.19715366 67.0556972,7.42819502 L67.0556972,7.09164036 C66.9397689,6.64590899 66.5800147,5.82690874 65.5014865,5.82690874 C64.0197492,5.82690874 63.6925315,6.63246626 63.6925315,6.63246626 L62.3370468,5.82690874 C62.3370468,5.82690874 63.0955515,4.25454545 65.3714922,4.25454545 C68.2014037,4.25454546 68.6831787,6.2173129 68.6831787,6.87837025 C68.6831787,6.88158796 68.6831222,6.88478487 68.6830099,6.8879611 L68.6830099,11.8599609 L67.0556972,11.8599609 L67.0556972,11.0446473 Z M66.9394493,8.59114879 C66.9394493,8.59114879 63.8044092,7.74144626 63.6954317,9.51244229 C63.5864542,11.2834383 66.7030599,10.4330567 66.9815226,9.17761896 C66.9815226,8.77839576 66.9394493,8.59114879 66.9394493,8.59114879 Z" id="a"></path>
                        <path d="M71.7365512,11.4290526 L70.2185405,15.0545455 L71.8458532,15.0545455 L76.2484967,4.53963068 L74.621184,4.53963068 L72.5502075,9.48578216 L70.4626374,4.5 L68.8353248,4.5 L71.7365512,11.4290526 Z" id="y"></path>
                        <path d="M47.1290365,7.17755368 L41.9823377,9.31640312 C41.9823377,9.31640312 42.3147304,10.4993974 43.8621224,10.5073263 C45.073788,10.5135349 45.7577801,9.42738396 45.7577801,9.42738396 L47.0635667,10.3166198 C47.0635667,10.3166198 46.0098686,12.0302494 43.8518371,12.0302494 C41.1999141,12.0302494 40.031891,9.698461 40.031891,8.18412068 C40.031891,6.72509285 40.959001,4.25454545 43.6872725,4.25454545 C46.4155441,4.25454545 47.1290365,7.17755368 47.1290365,7.17755368 Z M45.1708264,6.57164888 C45.1708264,6.57164888 44.5233003,5.58097429 43.5302241,5.76367658 C41.4295529,6.15014988 41.6939046,7.99867302 41.6939046,7.99867302 L45.1708264,6.57164888 Z" id="e"></path>
                        <rect id="i" x="37.5909221" y="0.409090909" width="1.721599" height="11.4304813"></rect>
                        <path d="M34.8358733,4.50296696 L36.4273238,4.51679184 L36.4273238,11.7290751 C36.4273238,13.5717937 35.3362921,15.51696 32.7677392,15.51696 C30.1991863,15.51696 29.3696382,13.228532 29.3696382,13.228532 L30.831237,12.6104228 C30.831237,12.6104228 31.2770152,14.0207793 32.8436921,14.0207775 C34.627794,14.0207753 34.8360711,12.3886099 34.8360711,11.829915 L34.8360711,11.0472152 C34.8360711,11.0472152 34.218756,12.0187543 32.6854569,12.0187565 C31.0230477,12.0187588 29.0475307,10.5865231 29.0475307,8.1448453 C29.0475307,5.70316749 30.9077338,4.30655517 32.7046923,4.25575303 C34.1440395,4.21506099 34.8358733,5.21629444 34.8358733,5.21629444 L34.8358733,4.50296696 Z M32.8213413,10.5531346 C33.9818924,10.5531346 34.9227048,9.48412465 34.9227048,8.16543406 C34.9227048,6.84674346 33.9818924,5.77773352 32.8213413,5.77773352 C31.6607903,5.77773352 30.7199779,6.84674346 30.7199779,8.16543406 C30.7199779,9.48412465 31.6607903,10.5531346 32.8213413,10.5531346 Z" id="g"></path>
                        <path d="M24.4591027,12.0272727 C22.3197737,12.0272727 20.5855049,10.2872885 20.5855049,8.14090909 C20.5855049,5.99452972 22.3197737,4.25454545 24.4591027,4.25454545 C26.5984316,4.25454545 28.3327004,5.99452972 28.3327004,8.14090909 C28.3327004,10.2872885 26.5984316,12.0272727 24.4591027,12.0272727 Z M24.433785,10.5032086 C25.6362837,10.5032086 26.6111014,9.44557106 26.6111014,8.14090909 C26.6111014,6.83624712 25.6362837,5.77860963 24.433785,5.77860963 C23.2312864,5.77860963 22.2564687,6.83624712 22.2564687,8.14090909 C22.2564687,9.44557106 23.2312864,10.5032086 24.433785,10.5032086 Z" id="o"></path>
                        <path d="M16.0784426,12.0272727 C13.9391136,12.0272727 12.2048448,10.2872885 12.2048448,8.14090909 C12.2048448,5.99452972 13.9391136,4.25454545 16.0784426,4.25454545 C18.2177715,4.25454545 19.9520403,5.99452972 19.9520403,8.14090909 C19.9520403,10.2872885 18.2177715,12.0272727 16.0784426,12.0272727 Z M16.0531249,10.5032086 C17.2556236,10.5032086 18.2304413,9.44557106 18.2304413,8.14090909 C18.2304413,6.83624712 17.2556236,5.77860963 16.0531249,5.77860963 C14.8506263,5.77860963 13.8758086,6.83624712 13.8758086,8.14090909 C13.8758086,9.44557106 14.8506263,10.5032086 16.0531249,10.5032086 Z" id="o"></path>
                        <g id="big-g">
                            <polygon id="Rectangle-1" points="6.07623176 5.48663102 11.1903935 5.48663102 11.1397582 7.11229947 6.07623176 7.11229947"></polygon>
                            <path d="M10.1840083,1.66159389 C9.18859471,0.607170489 7.73245082,0 6.00027886,0 C2.68641635,0 0,2.69526975 0,6.02005348 C0,9.3448372 2.68641954,12.0353396 6.00027886,12.040107 C9.3695019,12.0705684 12.1796602,9.68683677 11.6177274,5.54705778 C11.6177274,5.52687481 11.6176425,5.50673248 11.6174731,5.48663102 L10.1235935,5.48663102 C10.1357565,5.6594618 10.1399976,5.83732863 10.1359537,6.02005348 C10.1395139,8.9767975 8.44192885,10.3636364 6.05091412,10.3636364 C3.6598994,10.3636364 1.721599,8.41894806 1.721599,6.02005348 C1.721599,3.62115889 3.6598994,1.67647059 6.05091412,1.67647059 C7.24710044,1.67647059 8.28381648,2.08695038 9.0137449,2.83571404 L10.1840083,1.66159389 Z" id="Oval-1"></path>
                        </g>
                    </g>
                    <g id="logo_play" transform="translate(8.088789, 6.164427)">
                        <mask id="mask-4" fill="white">
                            <use xlink:href="#path-3"></use>
                        </mask>
                        <use id="yellow" fill="url(#linearGradient-2)" transform="translate(10.782534, 11.762839) rotate(-270.000000) translate(-10.782534, -11.762839) " xlink:href="#path-3"></use>
                        <polygon id="blue" fill="url(#linearGradient-5)" mask="url(#mask-4)" points="0.780065005 0.209323122 12.1539099 11.576761 0.633154836 23.3934957"></polygon>
                        <polygon id="green" fill="url(#linearGradient-6)" mask="url(#mask-4)" points="-1.55882023 -2.1308278 12.1525601 11.580086 16.2291133 7.66949181"></polygon>
                        <polygon id="red" fill="url(#linearGradient-7)" mask="url(#mask-4)" points="12.1544279 11.5774701 18.3952221 17.9028852 -0.248557307 24.2283004"></polygon>
                    </g>
                </g>
            </g>
        </g>
    </g>
</svg>